<mxfile host="app.diagrams.net" modified="2023-01-20T17:14:00.841Z" agent="5.0 (Macintosh; Intel Mac OS X 10_15_7) AppleWebKit/537.36 (KHTML, like Gecko) Chrome/108.0.0.0 Safari/537.36" version="20.7.4" etag="7Gzy2RqMvKC8yRiWZg-w" type="github">
  <diagram id="VqWRD1eYdqXnjN061D67" name="Page-1">
    <mxGraphModel dx="1034" dy="418" grid="1" gridSize="10" guides="1" tooltips="1" connect="1" arrows="1" fold="1" page="1" pageScale="1" pageWidth="827" pageHeight="1169" math="0" shadow="0">
      <root>
        <mxCell id="0" />
        <mxCell id="1" parent="0" />
        <mxCell id="977nJjWM0UaJ1cPmPAfp-1" value="" style="rounded=0;whiteSpace=wrap;html=1;" vertex="1" parent="1">
          <mxGeometry x="95" y="110" width="140" height="80" as="geometry" />
        </mxCell>
        <mxCell id="977nJjWM0UaJ1cPmPAfp-2" value="S3" style="text;html=1;strokeColor=none;fillColor=none;align=center;verticalAlign=middle;whiteSpace=wrap;rounded=0;" vertex="1" parent="1">
          <mxGeometry x="140" y="110" width="50" height="20" as="geometry" />
        </mxCell>
        <mxCell id="977nJjWM0UaJ1cPmPAfp-3" value="ssl.truststore.jks" style="rounded=0;whiteSpace=wrap;html=1;" vertex="1" parent="1">
          <mxGeometry x="300" y="150" width="100" height="30" as="geometry" />
        </mxCell>
        <mxCell id="977nJjWM0UaJ1cPmPAfp-4" value="ssl.keystore.jks" style="rounded=0;whiteSpace=wrap;html=1;" vertex="1" parent="1">
          <mxGeometry x="300" y="190" width="100" height="30" as="geometry" />
        </mxCell>
      </root>
    </mxGraphModel>
  </diagram>
</mxfile>
